<?xml version="1.0" encoding="UTF-8" standalone="no"?>
<!-- Created with Inkscape (http://www.inkscape.org/) -->

<svg
   version="1.1"
   id="svg2"
   width="309.01068"
   height="281.06134"
   viewBox="0 0 309.01068 281.06134"
   xmlns="http://www.w3.org/2000/svg"
   xmlns:svg="http://www.w3.org/2000/svg">
  <defs
     id="defs6">
    <clipPath
       clipPathUnits="userSpaceOnUse"
       id="clipPath16">
      <path
         d="M 0,210.796 H 231.758 V 0 H 0 Z"
         id="path14" />
    </clipPath>
  </defs>
  <g
     id="g8"
     transform="matrix(1.3333333,0,0,-1.3333333,0,281.06133)">
    <g
       id="g10">
      <g
         id="g12"
         clip-path="url(#clipPath16)">
        <g
           id="g18"
           transform="translate(200.418,150.2266)">
          <path
             d="m 0,0 v -91.035 c 0,-16.111 -12.93,-27.832 -29.211,-27.832 h -110.613 c -14.222,0 -29.215,11.011 -29.236,27.832 -0.019,14.784 0,120.245 0,120.245 H -29.211 C -12.492,29.21 0,15.082 0,0"
             style="fill:#1560a8;fill-opacity:1;fill-rule:evenodd;stroke:none"
             id="path20" />
        </g>
        <g
           id="g22"
           transform="translate(85.2231,148.0952)">
          <path
             d="M 0,0 C 10.537,0 10.275,15.57 0,15.57 -10.225,15.57 -10.486,0.051 0,0 m 0,-2.421 v 0 c 5.191,0.048 7.76,-3.575 7.76,-6.91 v -8.581 c 0,-3.813 3.144,-6.958 7.445,-6.958 4.299,0 7.443,3.242 7.443,7.149 v 12.152 c 0,11.772 9.387,21.255 23.121,21.349 6.029,0.049 11.115,-2.001 15.258,-5.336 4.195,3.43 6.24,5.336 15.414,5.336 14.207,0 23.174,-9.577 23.174,-21.301 v -26.307 c 0,-4.765 -3.252,-7.147 -7.184,-7.434 -3.879,-0.238 -8.598,2.24 -8.598,7.34 v 26.878 c 0,3.907 -3.144,7.1 -7.445,7.1 -4.246,0 -7.392,-3.097 -7.392,-6.909 v -26.926 c 0,-4.146 -3.252,-7.53 -7.916,-7.53 -4.614,0 -7.813,3.335 -7.813,7.387 v 26.924 c 0,3.909 -3.144,7.151 -7.392,7.151 -4.299,0 -7.444,-3.147 -7.444,-6.959 v -13.249 c 0,-11.723 -8.546,-21.064 -23.175,-21.302 -4.719,-0.047 -11.113,1.953 -15.152,5.242 -0.053,0 -0.053,0 -0.104,-0.048 -4.037,-3.288 -9.857,-5.194 -15.1,-5.194 -13.421,0.048 -23.173,9.579 -23.173,21.351 V 8.156 c 0,4.002 3.355,7.338 7.916,7.338 4.507,0 7.865,-3.383 7.865,-7.243 l -0.053,-26.257 c 0,-3.719 3.197,-6.864 7.445,-6.864 4.299,0 7.444,3.242 7.393,7.102 v 8.437 c 0,3.193 2.254,6.815 7.549,6.91 z"
             style="fill:#ffffff;fill-opacity:1;fill-rule:evenodd;stroke:none"
             id="path24" />
        </g>
        <g
           id="g26"
           transform="translate(48.251,95.6563)">
          <path
             d="M 0,0 C 0,1.192 0.763,1.86 1.789,1.86 2.814,1.86 3.577,1.192 3.577,0 v -11.973 h 4.245 c 1.217,0 1.741,-0.906 1.718,-1.716 -0.048,-0.788 -0.668,-1.575 -1.718,-1.575 H 1.86 C 0.691,-15.264 0,-14.5 0,-13.308 Z"
             style="fill:#ffffff;fill-opacity:1;fill-rule:nonzero;stroke:none"
             id="path28" />
        </g>
        <g
           id="g30"
           transform="translate(63.4653,87.0225)">
          <path
             d="M 0,0 H 4.531 L 2.313,6.917 H 2.266 Z m -0.262,8.657 c 0.406,1.098 1.335,1.98 2.552,1.98 1.264,0 2.147,-0.834 2.552,-1.98 L 9.517,-4.316 c 0.142,-0.382 0.19,-0.716 0.19,-0.883 0,-0.93 -0.764,-1.574 -1.645,-1.574 -1.002,0 -1.503,0.525 -1.742,1.24 l -0.716,2.242 h -6.629 l -0.716,-2.218 c -0.238,-0.739 -0.739,-1.264 -1.717,-1.264 -0.954,0 -1.765,0.715 -1.765,1.669 0,0.382 0.119,0.668 0.167,0.788 z"
             style="fill:#ffffff;fill-opacity:1;fill-rule:nonzero;stroke:none"
             id="path32" />
        </g>
        <g
           id="g34"
           transform="translate(77.333,83.541)">
          <path
             d="m 0,0 h 2.814 c 1.289,0 2.243,0.739 2.243,2.074 0,1.121 -0.859,1.885 -2.529,1.885 L 0,3.959 Z m 0,7.106 h 1.86 c 1.169,0 1.932,0.693 1.932,1.885 0,1.121 -0.882,1.694 -1.932,1.694 H 0 Z m -3.577,4.938 c 0,1.144 0.787,1.788 1.884,1.788 h 4.579 c 2.48,0 4.484,-1.669 4.484,-4.197 0,-1.669 -0.692,-2.79 -2.219,-3.506 V 6.081 C 7.179,5.795 8.777,4.102 8.777,2.027 c 0,-3.363 -2.242,-5.175 -5.533,-5.175 h -4.913 c -1.098,0 -1.908,0.691 -1.908,1.812 z"
             style="fill:#ffffff;fill-opacity:1;fill-rule:nonzero;stroke:none"
             id="path36" />
        </g>
        <g
           id="g38"
           transform="translate(99.3281,88.8828)">
          <path
             d="m 0,0 c 0,2.886 -1.503,5.485 -4.484,5.485 -2.981,0 -4.484,-2.599 -4.484,-5.485 0,-2.909 1.455,-5.485 4.484,-5.485 C -1.455,-5.485 0,-2.909 0,0 m -12.688,0 c 0,4.961 3.338,8.776 8.204,8.776 C 0.31,8.776 3.72,4.842 3.72,0 c 0,-4.937 -3.315,-8.776 -8.204,-8.776 -4.841,0 -8.204,3.839 -8.204,8.776"
             style="fill:#ffffff;fill-opacity:1;fill-rule:nonzero;stroke:none"
             id="path40" />
        </g>
        <g
           id="g42"
           transform="translate(108.1484,89.8604)">
          <path
             d="m 0,0 h 2.457 c 1.312,0 2.218,0.787 2.218,2.123 0,1.359 -0.906,2.099 -2.218,2.099 H 0 Z m -3.577,5.652 c 0,1.146 0.643,1.861 1.836,1.861 h 4.198 c 3.673,0 5.938,-1.646 5.938,-5.39 0,-2.623 -1.979,-4.126 -4.412,-4.508 l 4.055,-4.34 c 0.334,-0.358 0.476,-0.715 0.476,-1.049 0,-0.93 -0.738,-1.837 -1.788,-1.837 -0.429,0 -1.001,0.167 -1.383,0.62 L 0.048,-2.575 H 0 v -5.176 c 0,-1.192 -0.763,-1.86 -1.788,-1.86 -1.026,0 -1.789,0.668 -1.789,1.86 z"
             style="fill:#ffffff;fill-opacity:1;fill-rule:nonzero;stroke:none"
             id="path44" />
        </g>
        <g
           id="g46"
           transform="translate(122.6484,87.0225)">
          <path
             d="M 0,0 H 4.531 L 2.313,6.917 H 2.266 Z m -0.262,8.657 c 0.405,1.098 1.334,1.98 2.551,1.98 1.264,0 2.147,-0.834 2.553,-1.98 L 9.516,-4.316 c 0.142,-0.382 0.191,-0.716 0.191,-0.883 0,-0.93 -0.764,-1.574 -1.646,-1.574 -1.002,0 -1.502,0.525 -1.741,1.24 l -0.716,2.242 h -6.629 l -0.717,-2.218 c -0.238,-0.739 -0.738,-1.264 -1.717,-1.264 -0.953,0 -1.764,0.715 -1.764,1.669 0,0.382 0.119,0.668 0.166,0.788 z"
             style="fill:#ffffff;fill-opacity:1;fill-rule:nonzero;stroke:none"
             id="path48" />
        </g>
        <g
           id="g50"
           transform="translate(134.4277,94.082)">
          <path
             d="m 0,0 h -2.6 c -1.144,0 -1.621,0.835 -1.621,1.646 0,0.834 0.596,1.645 1.621,1.645 H 6.178 C 7.203,3.291 7.799,2.48 7.799,1.646 7.799,0.835 7.322,0 6.178,0 h -2.6 v -11.973 c 0,-1.192 -0.764,-1.86 -1.789,-1.86 -1.025,0 -1.789,0.668 -1.789,1.86 z"
             style="fill:#ffffff;fill-opacity:1;fill-rule:nonzero;stroke:none"
             id="path52" />
        </g>
        <g
           id="g54"
           transform="translate(154.3496,88.8828)">
          <path
             d="m 0,0 c 0,2.886 -1.502,5.485 -4.484,5.485 -2.981,0 -4.483,-2.599 -4.483,-5.485 0,-2.909 1.455,-5.485 4.483,-5.485 C -1.455,-5.485 0,-2.909 0,0 m -12.688,0 c 0,4.961 3.338,8.776 8.204,8.776 4.795,0 8.205,-3.934 8.205,-8.776 0,-4.937 -3.315,-8.776 -8.205,-8.776 -4.84,0 -8.204,3.839 -8.204,8.776"
             style="fill:#ffffff;fill-opacity:1;fill-rule:nonzero;stroke:none"
             id="path56" />
        </g>
        <g
           id="g58"
           transform="translate(163.084,89.8613)">
          <path
             d="M 0,0 H 2.457 C 3.77,0 4.676,0.787 4.676,2.123 4.676,3.482 3.77,4.222 2.457,4.222 H 0 Z m -3.576,5.652 c 0,1.146 0.642,1.861 1.836,1.861 h 4.197 c 3.674,0 5.939,-1.646 5.939,-5.39 0,-2.623 -1.98,-4.126 -4.412,-4.508 l 4.053,-4.34 c 0.334,-0.358 0.479,-0.715 0.479,-1.049 0,-0.93 -0.741,-1.837 -1.789,-1.837 -0.43,0 -1.002,0.167 -1.383,0.62 L 0.049,-2.575 H 0 v -5.176 c 0,-1.192 -0.762,-1.86 -1.787,-1.86 -1.027,0 -1.789,0.668 -1.789,1.86 z"
             style="fill:#ffffff;fill-opacity:1;fill-rule:nonzero;stroke:none"
             id="path60" />
        </g>
        <g
           id="g62"
           transform="translate(176.416,88.3584)">
          <path
             d="m 0,0 -4.508,6.344 c -0.215,0.31 -0.334,0.691 -0.334,1.073 0,0.954 0.715,1.741 1.717,1.741 0.621,0 1.17,-0.262 1.479,-0.716 L 1.789,3.458 5.223,8.442 c 0.31,0.454 0.859,0.716 1.478,0.716 1.002,0 1.717,-0.787 1.717,-1.741 0,-0.382 -0.119,-0.763 -0.334,-1.073 L 3.578,0 V -6.368 C 3.578,-7.25 3.053,-8.109 1.789,-8.109 0.525,-8.109 0,-7.25 0,-6.368 Z"
             style="fill:#ffffff;fill-opacity:1;fill-rule:nonzero;stroke:none"
             id="path64" />
        </g>
        <g
           id="g66"
           transform="translate(48.6963,69.0928)">
          <path
             d="M 0,0 C 0,1.7 1.089,2.653 2.551,2.653 4.014,2.653 5.102,1.7 5.102,0 v -19.318 c 0,-1.702 -1.088,-2.654 -2.551,-2.654 -1.462,0 -2.551,0.952 -2.551,2.654 z"
             style="fill:#ffffff;fill-opacity:1;fill-rule:nonzero;stroke:none"
             id="path68" />
        </g>
        <g
           id="g70"
           transform="translate(59.1475,69.127)">
          <path
             d="m 0,0 c 0.204,1.225 1.53,2.619 3.333,2.619 1.7,0 3.027,-1.224 3.401,-2.449 l 4.013,-13.469 h 0.068 L 14.829,0.17 c 0.374,1.225 1.7,2.449 3.401,2.449 1.802,0 3.129,-1.394 3.333,-2.619 l 3.164,-18.979 c 0.034,-0.204 0.034,-0.408 0.034,-0.578 0,-1.497 -1.089,-2.449 -2.449,-2.449 -1.735,0 -2.416,0.782 -2.654,2.381 l -2.006,13.843 h -0.068 l -4.082,-14.251 c -0.237,-0.817 -0.884,-1.973 -2.721,-1.973 -1.836,0 -2.482,1.156 -2.72,1.973 L 3.979,-5.782 H 3.911 L 1.904,-19.625 c -0.238,-1.599 -0.918,-2.381 -2.653,-2.381 -1.36,0 -2.448,0.952 -2.448,2.449 0,0.17 0,0.374 0.034,0.578 z"
             style="fill:#ffffff;fill-opacity:1;fill-rule:nonzero;stroke:none"
             id="path72" />
        </g>
        <g
           id="g74"
           transform="translate(92.332,56.7803)">
          <path
             d="M 0,0 H 6.462 L 3.299,9.863 H 3.231 Z m -0.374,12.347 c 0.578,1.564 1.904,2.823 3.64,2.823 1.801,0 3.06,-1.191 3.638,-2.823 L 13.57,-6.156 c 0.204,-0.544 0.273,-1.021 0.273,-1.258 0,-1.327 -1.088,-2.245 -2.347,-2.245 -1.429,0 -2.142,0.748 -2.483,1.768 l -1.02,3.198 h -9.456 l -1.019,-3.163 c -0.341,-1.055 -1.055,-1.803 -2.45,-1.803 -1.36,0 -2.516,1.02 -2.516,2.381 0,0.544 0.17,0.952 0.237,1.122 z"
             style="fill:#ffffff;fill-opacity:1;fill-rule:nonzero;stroke:none"
             id="path76" />
        </g>
        <g
           id="g78"
           transform="translate(125.4648,61.6777)">
          <path
             d="m 0,0 c 2.143,0 2.992,-1.088 2.992,-3.265 0,-6.564 -4.285,-11.496 -11.088,-11.496 -6.903,0 -11.699,5.476 -11.699,12.517 0,7.074 4.762,12.516 11.699,12.516 5.137,0 9.354,-2.415 9.354,-4.795 0,-1.463 -0.918,-2.381 -2.11,-2.381 -2.312,0 -2.789,2.482 -7.244,2.482 -4.251,0 -6.393,-3.707 -6.393,-7.822 0,-4.15 2.075,-7.823 6.393,-7.823 2.688,0 5.783,1.497 5.783,5.374 h -3.47 c -1.395,0 -2.381,0.986 -2.381,2.38 0,1.429 1.09,2.313 2.381,2.313 z"
             style="fill:#ffffff;fill-opacity:1;fill-rule:nonzero;stroke:none"
             id="path80" />
        </g>
        <g
           id="g82"
           transform="translate(130.4766,69.0928)">
          <path
             d="M 0,0 C 0,1.7 1.09,2.653 2.551,2.653 4.014,2.653 5.102,1.7 5.102,0 v -19.318 c 0,-1.702 -1.088,-2.654 -2.551,-2.654 C 1.09,-21.972 0,-21.02 0,-19.318 Z"
             style="fill:#ffffff;fill-opacity:1;fill-rule:nonzero;stroke:none"
             id="path84" />
        </g>
        <g
           id="g86"
           transform="translate(138.6113,69.0928)">
          <path
             d="m 0,0 c 0,1.7 1.09,2.653 2.551,2.653 0.646,0 1.701,-0.51 2.144,-1.123 l 10.782,-14.386 h 0.068 V 0 c 0,1.7 1.088,2.653 2.551,2.653 1.461,0 2.55,-0.953 2.55,-2.653 v -19.318 c 0,-1.702 -1.089,-2.654 -2.55,-2.654 -0.647,0 -1.668,0.51 -2.143,1.122 L 5.17,-6.632 H 5.104 v -12.686 c 0,-1.702 -1.09,-2.654 -2.553,-2.654 C 1.09,-21.972 0,-21.02 0,-19.318 Z"
             style="fill:#ffffff;fill-opacity:1;fill-rule:nonzero;stroke:none"
             id="path88" />
        </g>
        <g
           id="g90"
           transform="translate(181.041,61.6777)">
          <path
             d="m 0,0 c 2.143,0 2.994,-1.088 2.994,-3.265 0,-6.564 -4.285,-11.496 -11.088,-11.496 -6.904,0 -11.701,5.476 -11.701,12.517 0,7.074 4.762,12.516 11.701,12.516 5.135,0 9.354,-2.415 9.354,-4.795 0,-1.463 -0.92,-2.381 -2.11,-2.381 -2.312,0 -2.789,2.482 -7.244,2.482 -4.252,0 -6.394,-3.707 -6.394,-7.822 0,-4.15 2.074,-7.823 6.394,-7.823 2.686,0 5.781,1.497 5.781,5.374 h -3.468 c -1.395,0 -2.381,0.986 -2.381,2.38 0,1.429 1.088,2.313 2.381,2.313 z"
             style="fill:#ffffff;fill-opacity:1;fill-rule:nonzero;stroke:none"
             id="path92" />
        </g>
      </g>
    </g>
  </g>
</svg>
